<svg xmlns="http://www.w3.org/2000/svg" width="22.912" height="22.912" viewBox="0 0 22.912 22.912">
    <g id="calendar_4_" data-name="calendar (4)" opacity="0.3">
        <g id="Group_2550" data-name="Group 2550">
            <g id="Group_2549" data-name="Group 2549">
                <path id="Path_1548" d="M20.227 1.79h-1.074V0h-1.79v1.79H5.549V0h-1.79v1.79H2.685A2.688 2.688 0 0 0 0 4.475v15.752a2.688 2.688 0 0 0 2.685 2.685h17.542a2.688 2.688 0 0 0 2.685-2.685V4.475a2.688 2.688 0 0 0-2.685-2.685zm.895 18.437a.9.9 0 0 1-.895.895H2.685a.9.9 0 0 1-.895-.895V8.413h19.332zm0-13.6H1.79V4.475a.9.9 0 0 1 .895-.895h1.074v1.79h1.79V3.58h11.814v1.79h1.79V3.58h1.074a.9.9 0 0 1 .895.895z" data-name="Path 1548"/>
            </g>
        </g>
        <g id="Group_2552" data-name="Group 2552" transform="translate(3.808 10.182)">
            <g id="Group_2551" data-name="Group 2551">
                <path id="Rectangle_312" d="M0 0H2V2H0z" data-name="Rectangle 312" transform="translate(-.352 .274)"/>
            </g>
        </g>
        <g id="Group_2554" data-name="Group 2554" transform="translate(6.357 10.182)">
            <g id="Group_2553" data-name="Group 2553">
                <path id="Rectangle_313" d="M0 0H2V2H0z" data-name="Rectangle 313" transform="translate(.099 .274)"/>
            </g>
        </g>
        <g id="Group_2556" data-name="Group 2556" transform="translate(10.181 10.182)">
            <g id="Group_2555" data-name="Group 2555">
                <path id="Rectangle_314" d="M0 0H2V2H0z" data-name="Rectangle 314" transform="translate(.275 .274)"/>
            </g>
        </g>
        <g id="Group_2558" data-name="Group 2558" transform="translate(14.005 10.182)">
            <g id="Group_2557" data-name="Group 2557">
                <path id="Rectangle_315" d="M0 0H2V2H0z" data-name="Rectangle 315" transform="translate(.451 .274)"/>
            </g>
        </g>
        <g id="Group_2560" data-name="Group 2560" transform="translate(17.83 10.182)">
            <g id="Group_2559" data-name="Group 2559">
                <path id="Rectangle_316" d="M0 0H2V2H0z" data-name="Rectangle 316" transform="translate(-.374 .274)"/>
            </g>
        </g>
        <g id="Group_2562" data-name="Group 2562" transform="translate(3.808 14.005)">
            <g id="Group_2561" data-name="Group 2561">
                <path id="Rectangle_317" d="M0 0H2V1H0z" data-name="Rectangle 317" transform="translate(-.352 .45)"/>
            </g>
        </g>
        <g id="Group_2564" data-name="Group 2564" transform="translate(6.357 14.005)">
            <g id="Group_2563" data-name="Group 2563">
                <path id="Rectangle_318" d="M0 0H2V1H0z" data-name="Rectangle 318" transform="translate(.099 .45)"/>
            </g>
        </g>
        <g id="Group_2566" data-name="Group 2566" transform="translate(10.181 14.005)">
            <g id="Group_2565" data-name="Group 2565">
                <path id="Rectangle_319" d="M0 0H2V1H0z" data-name="Rectangle 319" transform="translate(.275 .45)"/>
            </g>
        </g>
        <g id="Group_2568" data-name="Group 2568" transform="translate(14.005 14.005)">
            <g id="Group_2567" data-name="Group 2567">
                <path id="Rectangle_320" d="M0 0H2V1H0z" data-name="Rectangle 320" transform="translate(.451 .45)"/>
            </g>
        </g>
        <g id="Group_2570" data-name="Group 2570" transform="translate(3.808 16.555)">
            <g id="Group_2569" data-name="Group 2569">
                <path id="Rectangle_321" d="M0 0H2V3H0z" data-name="Rectangle 321" transform="translate(-.352 -.099)"/>
            </g>
        </g>
        <g id="Group_2572" data-name="Group 2572" transform="translate(6.357 16.555)">
            <g id="Group_2571" data-name="Group 2571">
                <path id="Rectangle_322" d="M0 0H2V3H0z" data-name="Rectangle 322" transform="translate(.099 -.099)"/>
            </g>
        </g>
        <g id="Group_2574" data-name="Group 2574" transform="translate(10.181 16.555)">
            <g id="Group_2573" data-name="Group 2573">
                <path id="Rectangle_323" d="M0 0H2V3H0z" data-name="Rectangle 323" transform="translate(.275 -.099)"/>
            </g>
        </g>
        <g id="Group_2576" data-name="Group 2576" transform="translate(14.005 16.555)">
            <g id="Group_2575" data-name="Group 2575">
                <path id="Rectangle_324" d="M0 0H2V3H0z" data-name="Rectangle 324" transform="translate(.451 -.099)"/>
            </g>
        </g>
        <g id="Group_2578" data-name="Group 2578" transform="translate(17.83 14.005)">
            <g id="Group_2577" data-name="Group 2577">
                <path id="Rectangle_325" d="M0 0H2V1H0z" data-name="Rectangle 325" transform="translate(-.374 .45)"/>
            </g>
        </g>
    </g>
</svg>
