<svg xmlns="http://www.w3.org/2000/svg" width="14.608" height="19.481" viewBox="0 0 14.608 19.481">
    <g data-name="Group 732">
        <path d="M13.282 5.433H1.325a.655.655 0 0 0-.655.655v10.234a3.158 3.158 0 0 0 3.155 3.155h6.958a3.158 3.158 0 0 0 3.155-3.155V6.092a.655.655 0 0 0-.656-.659zm-7.553 10.1a.805.805 0 0 1-1.61 0v-6.15a.805.805 0 0 1 1.61 0zm4.759 0a.805.805 0 0 1-1.61 0v-6.15a.805.805 0 0 1 1.61 0z" data-name="Path 1349" fill="red"/>
        <path d="M12.626 1.019H9.772V.772A.773.773 0 0 0 9 0H5.608a.773.773 0 0 0-.772.772v.247H1.982A1.984 1.984 0 0 0 0 3v1.272a.412.412 0 0 0 .412.412h13.784a.412.412 0 0 0 .411-.412V3a1.984 1.984 0 0 0-1.981-1.981z" data-name="Path 1350" fill="red"/>
    </g>
</svg>
